<?xml version="1.0" encoding="UTF-8"?>
<svg id="_图层_1" data-name="图层 1" xmlns="http://www.w3.org/2000/svg" viewBox="0 0 1614.72 546.34">
  <defs>
    <style>
      .cls-1 {
        fill: #ff9800;
      }
    </style>
  </defs>
  <path class="cls-1" d="M100,373.23C40.24,338.66,0,274.02,0,200,0,89.57,89.57,0,200,0s200,89.57,200,200c0,74.02-40.24,138.66-100,173.23v70.67c0,10.79-8.72,19.51-19.51,19.51H119.51c-10.79,0-19.51-8.72-19.51-19.51v-70.67Zm26.83,129.21h146.34c2.68,0,4.88,2.2,4.88,4.88v19.51c0,10.79-8.72,19.51-19.51,19.51h-117.07c-10.79,0-19.51-8.72-19.51-19.51v-19.51c0-2.68,2.2-4.88,4.88-4.88Z"/>
  <g>
    <path d="M665.77,209.85c20.54,0,39.17,4.13,55.87,12.38,16.7,8.26,29.9,20.3,39.6,36.14,9.69,15.84,14.54,34.7,14.54,56.59s-4.85,40.8-14.54,56.74c-9.7,15.94-22.85,28.08-39.46,36.43-16.61,8.35-35.28,12.53-56.02,12.53h-76.03V209.85h76.03Zm-5.47,169.34c20.92,0,36.76-5.57,47.52-16.7,10.75-11.13,16.13-26.97,16.13-47.52s-5.43-36.05-16.27-47.09c-10.85-11.04-26.64-16.56-47.38-16.56h-21.31v127.87h21.31Z"/>
    <path d="M806.45,304.61c7.2-11.9,16.85-21.02,28.94-27.36,12.1-6.34,25.06-9.5,38.88-9.5s26.73,3.17,38.74,9.5c12,6.34,21.55,15.46,28.66,27.36,7.1,11.91,10.66,25.73,10.66,41.47s-3.55,29.81-10.66,41.62c-7.11,11.81-16.61,20.88-28.51,27.22-11.91,6.34-24.87,9.5-38.88,9.5s-27.03-3.17-39.02-9.5c-12-6.34-21.6-15.41-28.8-27.22-7.2-11.81-10.8-25.68-10.8-41.62s3.6-29.57,10.8-41.47Zm46.08,69.26c5.66,6.82,12.82,10.22,21.46,10.22s15.5-3.41,21.17-10.22c5.66-6.81,8.5-16.08,8.5-27.79s-2.83-21.02-8.5-27.94c-5.67-6.91-12.72-10.37-21.17-10.37s-15.79,3.46-21.46,10.37c-5.67,6.91-8.5,16.23-8.5,27.94s2.83,20.98,8.5,27.79Z"/>
    <path d="M982.28,247.73c-5.38-5.47-8.06-11.95-8.06-19.44s2.64-14.26,7.92-19.73c5.28-5.47,11.76-8.21,19.44-8.21s13.68,2.79,19.15,8.35c5.47,5.57,8.21,12.1,8.21,19.58s-2.69,13.97-8.06,19.44c-5.38,5.47-11.81,8.21-19.3,8.21s-13.92-2.74-19.3-8.21Zm42.91,172.94h-46.94v-148.9h46.94v148.9Z"/>
    <path d="M1190.07,284.16c9.5,10.94,14.26,27.07,14.26,48.38v88.13h-46.94v-72.29c0-12.48-1.87-22.18-5.62-29.09s-9.94-10.37-18.58-10.37-15.36,3.65-20.16,10.94c-4.8,7.3-7.2,17.47-7.2,30.53v70.27h-46.94v-148.9h41.76c.38,9.6,1.25,17.28,2.59,23.04,9.6-18.04,25.34-27.07,47.23-27.07,16.89,0,30.1,5.47,39.6,16.42Z"/>
    <path d="M1386.34,271.77v131.04c0,30.72-7.92,53.09-23.76,67.1-15.84,14.01-35.76,21.02-59.76,21.02-17.09,0-31.97-3.6-44.64-10.8-12.67-7.2-21.79-17.04-27.36-29.52l35.42-20.74c7.29,13.82,19.48,20.74,36.58,20.74,13.44,0,22.75-3.65,27.94-10.94,5.18-7.3,8.06-18.82,8.64-34.56-9.79,12.87-23.43,19.3-40.9,19.3-12.48,0-24.1-3.12-34.85-9.36-10.75-6.24-19.39-15.26-25.92-27.07-6.53-11.81-9.79-25.78-9.79-41.9s3.26-30.14,9.79-42.05c6.53-11.9,15.17-20.92,25.92-27.07,10.75-6.14,22.37-9.22,34.85-9.22,19.58,0,34.27,8.06,44.06,24.19,.96-4.99,1.63-11.71,2.02-20.16h41.76Zm-56.16,103.1c6.14-6.72,9.22-16.32,9.22-28.8s-3.02-21.55-9.07-27.79c-6.05-6.24-13.59-9.36-22.61-9.36s-16.99,3.31-22.75,9.94c-5.76,6.62-8.64,15.7-8.64,27.22s2.88,21.12,8.64,28.22c5.76,7.11,13.34,10.66,22.75,10.66,8.83,0,16.32-3.36,22.46-10.08Z"/>
    <path d="M1610.11,209.85l-73.73,102.24,77.47,108.58h-60.77l-46.94-68.54-47.81,68.54h-56.45l77.47-107.42-73.73-103.39h60.19l43.49,63.36,44.06-63.36h56.74Z"/>
  </g>
</svg>