<?xml version="1.0" standalone="no"?><!DOCTYPE svg PUBLIC "-//W3C//DTD SVG 1.1//EN" "http://www.w3.org/Graphics/SVG/1.1/DTD/svg11.dtd"><svg t="1673524319235" class="icon" viewBox="0 0 1024 1024" version="1.1" xmlns="http://www.w3.org/2000/svg" p-id="4604" xmlns:xlink="http://www.w3.org/1999/xlink" width="32" height="32"><path d="M348 676.1C250 619.4 184 513.4 184 392c0-181.1 146.9-328 328-328s328 146.9 328 328c0 121.4-66 227.4-164 284.1V792c0 17.7-14.3 32-32 32H380c-17.7 0-32-14.3-32-32V676.1zM392 888h240c4.4 0 8 3.6 8 8v32c0 17.7-14.3 32-32 32H416c-17.7 0-32-14.3-32-32v-32c0-4.4 3.6-8 8-8z" fill="#FF9800" p-id="4605"></path></svg>